<svg xmlns="http://www.w3.org/2000/svg" viewBox="0 0 64 64" role="img" aria-label="SpendWise favicon">
  <defs>
    <linearGradient id="bg" x1="12" x2="54" y1="8" y2="58" gradientUnits="userSpaceOnUse">
      <stop stop-color="#0f766e"/>
      <stop offset="1" stop-color="#0f172a"/>
    </linearGradient>
    <linearGradient id="accent" x1="18" x2="48" y1="46" y2="20" gradientUnits="userSpaceOnUse">
      <stop stop-color="#22c55e"/>
      <stop offset="1" stop-color="#38bdf8"/>
    </linearGradient>
  </defs>
  <rect width="64" height="64" rx="16" fill="url(#bg)"/>
  <path
    d="M16 43.5h32"
    fill="none"
    stroke="#d1fae5"
    stroke-linecap="round"
    stroke-width="4"
    opacity=".35"
  />
  <path
    d="M18 40l9-9 7 6 12-15"
    fill="none"
    stroke="url(#accent)"
    stroke-linecap="round"
    stroke-linejoin="round"
    stroke-width="5"
  />
  <path
    d="M45 22h-8m8 0v8"
    fill="none"
    stroke="#ecfeff"
    stroke-linecap="round"
    stroke-linejoin="round"
    stroke-width="5"
  />
  <circle cx="25" cy="26" r="9" fill="#f8fafc"/>
  <path
    d="M25 20v12m-4-3.5c.8 1.5 2.3 2.4 4.2 2.4 2.1 0 3.8-1.1 3.8-2.8 0-1.8-1.6-2.5-4.1-3.1-2.4-.6-3.7-1.4-3.7-3s1.5-2.7 3.6-2.7c1.7 0 3 .7 3.8 1.9"
    fill="none"
    stroke="#0f766e"
    stroke-linecap="round"
    stroke-linejoin="round"
    stroke-width="2.5"
  />
</svg>
